<mxfile host="app.diagrams.net" agent="Mozilla/5.0 (Windows NT 10.0; Win64; x64) AppleWebKit/537.36 (KHTML, like Gecko) Chrome/127.0.0.0 Safari/537.36" version="24.7.7">
  <diagram name="第 1 页" id="grTmJ_xihp6JIKDnjOEt">
    <mxGraphModel dx="1221" dy="725" grid="1" gridSize="10" guides="1" tooltips="1" connect="1" arrows="1" fold="1" page="1" pageScale="1" pageWidth="827" pageHeight="1169" math="0" shadow="0">
      <root>
        <mxCell id="0" />
        <mxCell id="1" parent="0" />
        <mxCell id="fhThLXo4aNaneTu2YpXD-7" style="rounded=0;orthogonalLoop=1;jettySize=auto;html=1;exitX=1;exitY=0.5;exitDx=0;exitDy=0;entryX=0;entryY=0.5;entryDx=0;entryDy=0;" edge="1" parent="1" source="fhThLXo4aNaneTu2YpXD-1" target="fhThLXo4aNaneTu2YpXD-2">
          <mxGeometry relative="1" as="geometry" />
        </mxCell>
        <mxCell id="fhThLXo4aNaneTu2YpXD-8" style="rounded=0;orthogonalLoop=1;jettySize=auto;html=1;exitX=1;exitY=0.5;exitDx=0;exitDy=0;entryX=0;entryY=0.5;entryDx=0;entryDy=0;" edge="1" parent="1" source="fhThLXo4aNaneTu2YpXD-1" target="fhThLXo4aNaneTu2YpXD-3">
          <mxGeometry relative="1" as="geometry" />
        </mxCell>
        <mxCell id="fhThLXo4aNaneTu2YpXD-9" style="edgeStyle=orthogonalEdgeStyle;rounded=0;orthogonalLoop=1;jettySize=auto;html=1;exitX=1;exitY=0.5;exitDx=0;exitDy=0;entryX=0;entryY=0.5;entryDx=0;entryDy=0;" edge="1" parent="1" source="fhThLXo4aNaneTu2YpXD-1" target="fhThLXo4aNaneTu2YpXD-4">
          <mxGeometry relative="1" as="geometry" />
        </mxCell>
        <mxCell id="fhThLXo4aNaneTu2YpXD-10" style="rounded=0;orthogonalLoop=1;jettySize=auto;html=1;exitX=1;exitY=0.5;exitDx=0;exitDy=0;entryX=0;entryY=0.5;entryDx=0;entryDy=0;" edge="1" parent="1" source="fhThLXo4aNaneTu2YpXD-1" target="fhThLXo4aNaneTu2YpXD-5">
          <mxGeometry relative="1" as="geometry" />
        </mxCell>
        <mxCell id="fhThLXo4aNaneTu2YpXD-11" style="rounded=0;orthogonalLoop=1;jettySize=auto;html=1;exitX=1;exitY=0.5;exitDx=0;exitDy=0;entryX=0;entryY=0.5;entryDx=0;entryDy=0;" edge="1" parent="1" source="fhThLXo4aNaneTu2YpXD-1" target="fhThLXo4aNaneTu2YpXD-6">
          <mxGeometry relative="1" as="geometry" />
        </mxCell>
        <mxCell id="fhThLXo4aNaneTu2YpXD-1" value="启动推演动画" style="rounded=1;whiteSpace=wrap;html=1;" vertex="1" parent="1">
          <mxGeometry x="294" y="180" width="120" height="60" as="geometry" />
        </mxCell>
        <mxCell id="fhThLXo4aNaneTu2YpXD-2" value="暂停动画" style="rounded=1;whiteSpace=wrap;html=1;" vertex="1" parent="1">
          <mxGeometry x="560" y="20" width="120" height="60" as="geometry" />
        </mxCell>
        <mxCell id="fhThLXo4aNaneTu2YpXD-3" value="停止动画" style="rounded=1;whiteSpace=wrap;html=1;" vertex="1" parent="1">
          <mxGeometry x="560" y="100" width="120" height="60" as="geometry" />
        </mxCell>
        <mxCell id="fhThLXo4aNaneTu2YpXD-4" value="快进动画" style="rounded=1;whiteSpace=wrap;html=1;" vertex="1" parent="1">
          <mxGeometry x="560" y="180" width="120" height="60" as="geometry" />
        </mxCell>
        <mxCell id="fhThLXo4aNaneTu2YpXD-5" value="后退动画" style="rounded=1;whiteSpace=wrap;html=1;" vertex="1" parent="1">
          <mxGeometry x="560" y="260" width="120" height="60" as="geometry" />
        </mxCell>
        <mxCell id="fhThLXo4aNaneTu2YpXD-6" value="进度拖动" style="rounded=1;whiteSpace=wrap;html=1;" vertex="1" parent="1">
          <mxGeometry x="560" y="340" width="120" height="60" as="geometry" />
        </mxCell>
      </root>
    </mxGraphModel>
  </diagram>
</mxfile>
